<?xml version="1.0" encoding="iso-8859-1"?>
<!-- Generator: Adobe Illustrator 19.0.0, SVG Export Plug-In . SVG Version: 6.00 Build 0)  -->
<svg version="1.1" id="Layer_1" xmlns="http://www.w3.org/2000/svg" xmlns:xlink="http://www.w3.org/1999/xlink" x="0px" y="0px"
	 viewBox="0 0 502 502" style="enable-background:new 0 0 502 502;" xml:space="preserve">
<g>
	<rect x="37.521" y="114.196" style="fill:#EB5989;" width="426.958" height="80.958"/>
	<path style="fill:#3B7BC0;" d="M312.393,114.196c17.192,0,31.129-13.937,31.129-31.129s-13.937-31.129-31.129-31.129
		c-0.67,0-1.334,0.028-1.993,0.07c0.168-1.442,0.264-2.907,0.264-4.394C310.664,26.84,293.823,10,273.05,10
		c-8.239,0-15.853,2.656-22.05,7.149C244.804,12.656,237.189,10,228.95,10c-20.774,0-37.614,16.84-37.614,37.614
		c0,1.487,0.096,2.951,0.264,4.394c-0.66-0.042-1.323-0.07-1.993-0.07c-17.192,0-31.129,13.937-31.129,31.129
		s13.937,31.129,31.129,31.129H312.393z"/>
	<path style="fill:#FFB86C;" d="M159.9,284.107l6.433,6.438c30.735,30.735,80.476,30.735,111.212,0l6.394-6.438
		c30.735-30.735,80.477-30.735,111.212,0l6.433,6.438c12.058,12.058,27.042,19.377,42.655,21.974V195.154H57.761v81.152
		C88.544,253.64,132.034,256.24,159.9,284.107z"/>
	<path style="fill:#FFB86C;" d="M395.151,398.201c-30.735-30.735-80.477-30.735-111.212,0l-6.394,6.438
		c-30.735,30.735-80.476,30.735-111.212,0l-6.433-6.438c-27.867-27.866-71.356-30.466-102.139-7.801V492h386.478v-65.386
		c-15.613-2.597-30.597-9.917-42.655-21.974L395.151,398.201z"/>
	<path style="fill:#EB5989;" d="M401.585,290.545l-6.433-6.438c-30.735-30.735-80.477-30.735-111.212,0l-6.394,6.438
		c-30.735,30.735-80.476,30.735-111.212,0l-6.433-6.438c-27.867-27.867-71.356-30.467-102.139-7.802V390.4
		c30.783-22.665,74.273-20.065,102.139,7.801l6.433,6.438c30.735,30.735,80.476,30.735,111.212,0l6.394-6.438
		c30.735-30.735,80.477-30.735,111.212,0l6.433,6.438c12.058,12.058,27.042,19.377,42.655,21.974V312.519
		C428.626,309.922,413.642,302.603,401.585,290.545z"/>
	<path d="M464.479,104.195H347.664c3.716-6.18,5.858-13.408,5.858-21.129c0-19.936-14.255-36.603-33.107-40.344
		C317.96,18.756,297.654,0,273.05,0c-7.771,0-15.279,1.854-22.05,5.408C244.229,1.854,236.721,0,228.95,0
		c-24.604,0-44.909,18.756-47.365,42.723c-18.853,3.741-33.107,20.408-33.107,40.344c0,7.721,2.142,14.949,5.858,21.129H37.521
		c-5.522,0-10,4.478-10,10v80.958c0,5.522,4.478,10,10,10H47.76V492c0,5.522,4.478,10,10,10H444.24c5.522,0,10-4.478,10-10V205.153
		h10.239c5.522,0,10-4.478,10-10v-80.958C474.479,108.673,470.001,104.195,464.479,104.195z M168.478,83.066
		c0-11.65,9.479-21.129,21.129-21.129c3.851,0,7.256-0.473,9.827-3.714c2.634-3.321,1.902-6.721,1.902-10.609
		C201.336,32.388,213.724,20,228.95,20c5.853,0,11.447,1.813,16.181,5.244c3.5,2.539,8.238,2.539,11.738,0
		C261.603,21.813,267.197,20,273.05,20c15.227,0,27.614,12.388,27.614,27.614c0,3.874-0.723,7.3,1.902,10.609
		c2.576,3.247,5.967,3.714,9.827,3.714c11.65,0,21.129,9.479,21.129,21.129s-9.479,21.129-21.129,21.129H189.606
		C177.956,104.195,168.478,94.717,168.478,83.066z M434.24,482H67.761v-86.32c26.695-16.785,62.45-13.024,85.065,9.589l6.436,6.442
		c34.562,34.56,90.794,34.56,125.379-0.025l6.369-6.413c12.976-12.977,30.213-20.123,48.534-20.123s35.557,7.146,48.532,20.12
		l6.437,6.441c11.126,11.125,24.729,18.966,39.727,22.964L434.24,482L434.24,482z M434.24,320.58v93.159
		c-9.564-3.383-18.267-8.853-25.582-16.167l-6.433-6.438c-0.001-0.001-0.002-0.002-0.003-0.003
		c-16.754-16.754-39.013-25.98-62.678-25.98c-23.664,0-45.923,9.227-62.701,26.006l-6.369,6.413
		c-26.762,26.761-70.307,26.761-97.066,0.004l-6.436-6.442c-15.091-15.09-35.098-24.236-56.335-25.753
		c-14.813-1.059-29.549,1.637-42.879,7.667l0.003-0.02v-91.419c26.696-16.792,62.449-13.046,85.067,9.57l6.434,6.44
		c17.278,17.277,39.97,25.918,62.668,25.917c22.704-0.001,45.416-8.647,62.711-25.942l6.369-6.413
		c12.976-12.977,30.213-20.123,48.534-20.123c18.322,0,35.56,7.146,48.532,20.12l6.437,6.441
		c11.126,11.125,24.738,18.952,39.736,22.949L434.24,320.58z M67.761,258.93v-53.776H434.24v94.505
		c-9.566-3.383-18.265-8.865-25.582-16.182l-6.436-6.441c-16.754-16.754-39.013-25.98-62.678-25.98
		c-23.664,0-45.923,9.227-62.701,26.006l-6.369,6.413c-26.762,26.762-70.307,26.761-97.066,0.004l-6.433-6.438
		c-0.001-0.002-0.002-0.003-0.003-0.004c-15.091-15.09-35.098-24.236-56.335-25.753c-2.112-0.15-4.221-0.226-6.326-0.226
		C91.655,251.057,79.188,253.763,67.761,258.93z M454.479,185.153H444.24H57.761h-10.24v-60.958h142.085h122.787h142.085
		L454.479,185.153L454.479,185.153z"/>
	<g>
		<path d="M232.688,170.056h-159c-5.522,0-10-4.478-10-10s4.478-10,10-10h159c5.522,0,10,4.478,10,10
			S238.211,170.056,232.688,170.056z"/>
	</g>
	<g>
		<path d="M308.688,170.056h-30c-5.522,0-10-4.478-10-10s4.478-10,10-10h30c5.522,0,10,4.478,10,10S314.211,170.056,308.688,170.056
			z"/>
	</g>
</g>
<g>
</g>
<g>
</g>
<g>
</g>
<g>
</g>
<g>
</g>
<g>
</g>
<g>
</g>
<g>
</g>
<g>
</g>
<g>
</g>
<g>
</g>
<g>
</g>
<g>
</g>
<g>
</g>
<g>
</g>
</svg>
